<svg xmlns="http://www.w3.org/2000/svg" xmlns:xlink="http://www.w3.org/1999/xlink" width="200" height="200" viewBox="0 0 200 200">
  <defs>
    <linearGradient id="grad1" x1="0%" y1="0%" x2="100%" y2="100%">
      <stop offset="0%" style="stop-color:#3498db;stop-opacity:1" />
      <stop offset="100%" style="stop-color:#2ecc71;stop-opacity:1" />
    </linearGradient>
    
    <linearGradient id="grad2" x1="0%" y1="0%" x2="100%" y2="100%">
      <stop offset="0%" style="stop-color:#ffffff;stop-opacity:0.7" />
      <stop offset="100%" style="stop-color:#ffffff;stop-opacity:0.3" />
    </linearGradient>
    
    <filter id="shadow" x="-20%" y="-20%" width="140%" height="140%">
      <feGaussianBlur in="SourceAlpha" stdDeviation="3" />
      <feOffset dx="2" dy="2" result="offsetblur" />
      <feComponentTransfer>
        <feFuncA type="linear" slope="0.5" />
      </feComponentTransfer>
      <feMerge>
        <feMergeNode />
        <feMergeNode in="SourceGraphic" />
      </feMerge>
    </filter>
    
    <clipPath id="roundedRect">
      <rect x="0" y="0" width="200" height="200" rx="25" ry="25" />
    </clipPath>
  </defs>
  
  <!-- Background -->
  <g clip-path="url(#roundedRect)">
    <rect width="200" height="200" rx="25" ry="25" fill="url(#grad1)" />
    
    <!-- Decorative Elements - Neural Network Pattern -->
    <g opacity="0.15">
      <circle cx="20" cy="20" r="4" fill="white" />
      <circle cx="50" cy="20" r="4" fill="white" />
      <circle cx="80" cy="20" r="4" fill="white" />
      <circle cx="110" cy="20" r="4" fill="white" />
      <circle cx="140" cy="20" r="4" fill="white" />
      <circle cx="170" cy="20" r="4" fill="white" />
      
      <circle cx="35" cy="40" r="4" fill="white" />
      <circle cx="65" cy="40" r="4" fill="white" />
      <circle cx="95" cy="40" r="4" fill="white" />
      <circle cx="125" cy="40" r="4" fill="white" />
      <circle cx="155" cy="40" r="4" fill="white" />
      
      <circle cx="20" cy="60" r="4" fill="white" />
      <circle cx="50" cy="60" r="4" fill="white" />
      <circle cx="80" cy="60" r="4" fill="white" />
      <circle cx="110" cy="60" r="4" fill="white" />
      <circle cx="140" cy="60" r="4" fill="white" />
      <circle cx="170" cy="60" r="4" fill="white" />
      
      <!-- Connection Lines -->
      <line x1="20" y1="20" x2="35" y2="40" stroke="white" stroke-width="1" />
      <line x1="50" y1="20" x2="35" y2="40" stroke="white" stroke-width="1" />
      <line x1="50" y1="20" x2="65" y2="40" stroke="white" stroke-width="1" />
      <line x1="80" y1="20" x2="65" y2="40" stroke="white" stroke-width="1" />
      <line x1="80" y1="20" x2="95" y2="40" stroke="white" stroke-width="1" />
      <line x1="110" y1="20" x2="95" y2="40" stroke="white" stroke-width="1" />
      <line x1="110" y1="20" x2="125" y2="40" stroke="white" stroke-width="1" />
      <line x1="140" y1="20" x2="125" y2="40" stroke="white" stroke-width="1" />
      <line x1="140" y1="20" x2="155" y2="40" stroke="white" stroke-width="1" />
      <line x1="170" y1="20" x2="155" y2="40" stroke="white" stroke-width="1" />
      
      <line x1="35" y1="40" x2="20" y2="60" stroke="white" stroke-width="1" />
      <line x1="35" y1="40" x2="50" y2="60" stroke="white" stroke-width="1" />
      <line x1="65" y1="40" x2="50" y2="60" stroke="white" stroke-width="1" />
      <line x1="65" y1="40" x2="80" y2="60" stroke="white" stroke-width="1" />
      <line x1="95" y1="40" x2="80" y2="60" stroke="white" stroke-width="1" />
      <line x1="95" y1="40" x2="110" y2="60" stroke="white" stroke-width="1" />
      <line x1="125" y1="40" x2="110" y2="60" stroke="white" stroke-width="1" />
      <line x1="125" y1="40" x2="140" y2="60" stroke="white" stroke-width="1" />
      <line x1="155" y1="40" x2="140" y2="60" stroke="white" stroke-width="1" />
      <line x1="155" y1="40" x2="170" y2="60" stroke="white" stroke-width="1" />
    </g>
  </g>

  <!-- Central Graphic Element -->
  <g transform="translate(100, 95)" filter="url(#shadow)">
    <!-- Gear/Cog representing optimization -->
    <path d="M0,-40 L5,-30 L20,-30 L25,-40 L35,-35 L30,-20 L40,-10 L50,-10 L50,0 L40,10 L30,20 L35,35 L25,40 L20,30 L5,30 L0,40 L-5,30 L-20,30 L-25,40 L-35,35 L-30,20 L-40,10 L-50,10 L-50,0 L-40,-10 L-30,-20 L-35,-35 L-25,-40 L-20,-30 L-5,-30 Z" fill="url(#grad2)" />
    
    <!-- Central ML Hub -->
    <circle cx="0" cy="0" r="20" fill="#FFFFFF" stroke="#3498db" stroke-width="3" />
    
    <!-- ML acronym -->
    <text x="0" y="7" font-family="Arial, sans-serif" font-size="20" font-weight="bold" fill="#2ecc71" text-anchor="middle">ML</text>
  </g>

  <!-- Title -->
  <g filter="url(#shadow)">
    <text x="100" y="160" font-family="Arial, sans-serif" font-size="30" font-weight="bold" fill="white" text-anchor="middle">OptimML</text>
    <text x="100" y="180" font-family="Arial, sans-serif" font-size="15" font-weight="bold" fill="white" text-anchor="middle">FRAMEWORK</text>
  </g>
</svg>
